<?xml version="1.0" ?><svg id="icons" style="enable-background:new 0 0 64 64;" version="1.1" viewBox="0 0 64 64" xml:space="preserve" xmlns="http://www.w3.org/2000/svg" xmlns:xlink="http://www.w3.org/1999/xlink"><g><path d="M27,11v8h2v-7h19v36H28v2h21c0.553,0,1-0.447,1-1V11c0-0.553-0.447-1-1-1H28C27.447,10,27,10.447,27,11z"/><rect height="2" width="4" x="36" y="6"/><path d="M35,55c0,1.654,1.346,3,3,3s3-1.346,3-3s-1.346-3-3-3S35,53.346,35,55z M39,55c0,0.552-0.448,1-1,1s-1-0.448-1-1   s0.448-1,1-1S39,54.448,39,55z"/><path d="M51,2H26c-1.654,0-3,1.346-3,3v14h2V5c0-0.552,0.448-1,1-1h25c0.552,0,1,0.448,1,1v54c0,0.552-0.448,1-1,1H26   c-0.552,0-1-0.448-1-1v-7h-2v7c0,1.654,1.346,3,3,3h25c1.654,0,3-1.346,3-3V5C54,3.346,52.654,2,51,2z"/><path d="M31,46h4h6h3v-2h-2V27c0-0.553-0.447-1-1-1h-6c-0.553,0-1,0.447-1,1v17h-2V22c0-0.553-0.447-1-1-1h-6c-0.553,0-1,0.447-1,1   v22h-2V27c0-0.553-0.447-1-1-1h-6c-0.553,0-1,0.447-1,1v17h-2V33c0-0.553-0.447-1-1-1H5c-0.553,0-1,0.447-1,1v11H2v2h3h6h4h6h4H31z    M36,28h4v16h-4V28z M26,23h4v21h-4V23z M6,44V34h4v10H6z M16,44V28h4v16H16z"/></g></svg>