<?xml version="1.0" encoding="UTF-8" standalone="no"?>
<svg
   xmlns:dc="http://purl.org/dc/elements/1.1/"
   xmlns:cc="http://creativecommons.org/ns#"
   xmlns:rdf="http://www.w3.org/1999/02/22-rdf-syntax-ns#"
   xmlns:svg="http://www.w3.org/2000/svg"
   xmlns="http://www.w3.org/2000/svg"
   xmlns:sodipodi="http://sodipodi.sourceforge.net/DTD/sodipodi-0.dtd"
   xmlns:inkscape="http://www.inkscape.org/namespaces/inkscape"
   id="icons"
   style="enable-background:new 0 0 64 64;"
   version="1.1"
   viewBox="0 0 64 64"
   xml:space="preserve"
   sodipodi:docname="mobile-color.svg"
   inkscape:version="0.92+devel unknown"><metadata
     id="metadata19"><rdf:RDF><cc:Work
         rdf:about=""><dc:format>image/svg+xml</dc:format><dc:type
           rdf:resource="http://purl.org/dc/dcmitype/StillImage" /><dc:title></dc:title></cc:Work></rdf:RDF></metadata><defs
     id="defs17" /><sodipodi:namedview
     pagecolor="#ffffff"
     bordercolor="#666666"
     inkscape:document-rotation="0"
     borderopacity="1"
     objecttolerance="10"
     gridtolerance="10"
     guidetolerance="10"
     inkscape:pageopacity="0"
     inkscape:pageshadow="2"
     inkscape:window-width="1366"
     inkscape:window-height="713"
     id="namedview15"
     showgrid="false"
     inkscape:zoom="8.953125"
     inkscape:cx="32"
     inkscape:cy="32.335079"
     inkscape:window-x="0"
     inkscape:window-y="0"
     inkscape:window-maximized="1"
     inkscape:current-layer="icons" /><g
     id="g12"><path
       d="M27,11v8h2v-7h19v36H28v2h21c0.553,0,1-0.447,1-1V11c0-0.553-0.447-1-1-1H28C27.447,10,27,10.447,27,11z"
       id="path2" /><rect
       height="2"
       width="4"
       x="36"
       y="6"
       id="rect4" /><path
       d="M35,55c0,1.654,1.346,3,3,3s3-1.346,3-3s-1.346-3-3-3S35,53.346,35,55z M39,55c0,0.552-0.448,1-1,1s-1-0.448-1-1   s0.448-1,1-1S39,54.448,39,55z"
       id="path6" /><path
       d="M51,2H26c-1.654,0-3,1.346-3,3v14h2V5c0-0.552,0.448-1,1-1h25c0.552,0,1,0.448,1,1v54c0,0.552-0.448,1-1,1H26   c-0.552,0-1-0.448-1-1v-7h-2v7c0,1.654,1.346,3,3,3h25c1.654,0,3-1.346,3-3V5C54,3.346,52.654,2,51,2z"
       id="path8" /><path
       d="M31,46h4h6h3v-2h-2V27c0-0.553-0.447-1-1-1h-6c-0.553,0-1,0.447-1,1v17h-2V22c0-0.553-0.447-1-1-1h-6c-0.553,0-1,0.447-1,1   v22h-2V27c0-0.553-0.447-1-1-1h-6c-0.553,0-1,0.447-1,1v17h-2V33c0-0.553-0.447-1-1-1H5c-0.553,0-1,0.447-1,1v11H2v2h3h6h4h6h4H31z    M36,28h4v16h-4V28z M26,23h4v21h-4V23z M6,44V34h4v10H6z M16,44V28h4v16H16z"
       id="path10" /></g><path
     style="fill:#98d298;fill-opacity:1;stroke-width:0.11169285"
     d="m 6.08726,38.980803 v -4.970332 h 1.9546248 1.9546248 v 4.970332 4.970331 H 8.0418848 6.08726 Z"
     id="path4278"
     inkscape:connector-curvature="0" /><path
     style="fill:#f6d298;fill-opacity:1;stroke-width:0.11169285"
     d="M 26.080279,33.507853 V 23.064572 h 1.954625 1.954625 v 10.443281 10.443281 h -1.954625 -1.954625 z"
     id="path4280"
     inkscape:connector-curvature="0" /><path
     style="fill:#3eabd4;fill-opacity:1;stroke-width:0.11169285"
     d="M 16.027923,36.020942 V 28.09075 h 1.954625 1.954625 v 7.930192 7.930192 h -1.954625 -1.954625 z"
     id="path4282"
     inkscape:connector-curvature="0" /><path
     style="fill:#f7abd4;fill-opacity:1;stroke-width:0.11169285"
     d="M 36.020942,36.020942 V 28.09075 h 1.954625 1.954625 v 7.930192 7.930192 h -1.954625 -1.954625 z"
     id="path4284"
     inkscape:connector-curvature="0" /></svg>